PathFileType	4	(X/Y/Z)	C:\Users\preethimanoharan\Documents\OpenSim\4.3\Models\Opensim Spine models\FBLS model Full body musculoskeletal model of lumar spine\Ha Pilot data\test_data_markers.trc
DataRate	CameraRate	NumFrames	NumMarkers	Units	OrigDataRate	OrigDataStartFrame	OrigNumFrames
100.000000	100.000000	4	41	mm	100.000000	463	1854
Frame#	Time	RFHD			LFHD			LBHD			RBHD			LSHO			LUPA			LELB			LFRM			LWRA			LWRB			LFIN			RSHO			RUPA			RELB			RFRM			RWRA			RWRB			RFIN			LTHI			LKNE			LTIB			LANK			LHEE			LTOE			LMT5			RTHI			RKNE			RTIB			RANK			RHEE			RTOE			RMT5			CLAV			STRN			LASI			RASI			C7			LPSI			RPSI			RBAK			T10			
		X1	Y1	Z1	X2	Y2	Z2	X3	Y3	Z3	X4	Y4	Z4	X5	Y5	Z5	X6	Y6	Z6	X7	Y7	Z7	X8	Y8	Z8	X9	Y9	Z9	X10	Y10	Z10	X11	Y11	Z11	X12	Y12	Z12	X13	Y13	Z13	X14	Y14	Z14	X15	Y15	Z15	X16	Y16	Z16	X17	Y17	Z17	X18	Y18	Z18	X19	Y19	Z19	X20	Y20	Z20	X21	Y21	Z21	X22	Y22	Z22	X23	Y23	Z23	X24	Y24	Z24	X25	Y25	Z25	X26	Y26	Z26	X27	Y27	Z27	X28	Y28	Z28	X29	Y29	Z29	X30	Y30	Z30	X31	Y31	Z31	X32	Y32	Z32	X33	Y33	Z33	X34	Y34	Z34	X35	Y35	Z35	X36	Y36	Z36	X37	Y37	Z37	X38	Y38	Z38	X39	Y39	Z39	X40	Y40	Z40	X41	Y41	Z41	

464	4.63	1115.010986328125	1686.677124023438	-711.6238403320311	985.2737426757812	1691.291259765625	-733.2085571289061	955.8020629882812	1671.481201171875	-590.8951416015624	1091.817260742188	1677.496826171875	-578.1174316406249	914.2311401367188	1471.048828125	-586.7108154296874	751.1643676757812	1460.019775390625	-631.4657592773436	596.5119018554688	1442.30029296875	-617.8359985351561	502.3262939453125	1471.893188476562	-636.8873291015624	372.2742309570312	1483.788452148438	-723.4934692382811	362.7850341796875	1476.512817382812	-658.8890380859374	289.9566345214844	1479.6201171875	-699.1141967773436	1161.3994140625	1473.697631835938	-601.6464233398436	1332.136108398438	1409.9072265625	-597.2485961914061	1458.928833007812	1422.29150390625	-614.6979370117186	1606.962524414062	1420.263549804688	-634.3517456054686	1702.037963867188	1433.371459960938	-713.9609985351561	1703.005981445312	1404.334350585938	-653.1985473632811	1778.482299804688	1424.228881835938	-679.8812866210936	849.3521118164062	622.7914428710938	-647.3924560546875	861.95166015625	473.5582885742188	-630.6817626953125	840.0016479492188	261.6122741699219	-582.3510131835938	848.181640625	77.59763336181643	-566.802978515625	893.89501953125	40.34665679931643	-521.4066162109375	875.3626708984375	46.87691116333012	-699.9463500976562	820.45263671875	20.90569877624516	-668.483154296875	1217.989868164062	616.41845703125	-650.10888671875	1207.870727539062	476.3828125000001	-635.9025268554688	1235.420532226562	338.8086547851563	-584.6054077148438	1196.226440429688	79.87139129638675	-558.536865234375	1153.865600585938	49.02872467041018	-518.0431518554688	1171.652221679688	51.42253112792973	-682.830078125	1240.09814453125	18.16223716735844	-648.6915893554688	1034.397583007812	1405.490966796875	-722.5950927734374	1033.47607421875	1233.886352539062	-748.9757690429686	911.5174560546875	959.9817504882812	-722.8513183593749	1158.155883789062	967.3095703125	-710.6975708007811	1034.036987304688	1486.265380859375	-591.0804443359374	967.4776000976562	1001.969116210938	-568.8107910156249	1087.987915039062	998.4552001953125	-563.4904174804686	1116.03076171875	1321.4267578125	-539.0410156249999	1035.37353515625	1111.742919921875	-572.8076782226561	
465	4.64	1115.326049804688	1686.824340820312	-710.9658813476561	985.3442993164062	1691.703857421875	-732.5925292968749	955.7421875	1671.304443359375	-590.5942993164061	1091.817749023438	1677.202392578125	-577.5487670898436	914.1781616210938	1471.258178710938	-586.9124755859374	751.1796875	1460.118774414062	-631.9287109374999	596.5132446289062	1442.367309570312	-618.1398925781249	501.8062744140625	1472.285400390625	-637.0400390624999	372.1479797363281	1483.570434570312	-723.6429443359374	362.8070983886719	1476.493408203125	-659.1339721679686	289.881591796875	1479.452026367188	-699.2035522460936	1161.38037109375	1473.810424804688	-602.0852050781249	1332.117797851562	1409.997192382812	-597.5638427734374	1458.972534179688	1422.4619140625	-614.9337158203124	1607.048095703125	1420.33203125	-634.4640502929686	1702.185913085938	1433.321655273438	-713.9913940429686	1703.007202148438	1404.345703125	-653.2388305664061	1778.521362304688	1424.251831054688	-679.8218994140624	849.3375854492188	622.9180908203125	-647.0907592773438	862.0264892578125	473.6091003417969	-630.4783935546875	840.0800170898438	261.6432495117188	-582.2109375	848.2793579101562	77.62996673583987	-566.7611694335938	893.8899536132812	40.37092208862308	-521.3572998046875	875.1253051757812	46.48413085937504	-700.2413330078125	820.4810791015625	20.9729270935059	-668.4679565429688	1217.9267578125	616.406494140625	-650.0042724609375	1207.866088867188	476.3738403320313	-635.8084716796875	1234.69189453125	339.3526611328126	-584.9417114257812	1196.26220703125	79.88773345947268	-558.5257568359375	1153.899291992188	49.03576278686526	-518.0570068359375	1171.640625	51.44969940185551	-682.7781982421875	1240.038696289062	18.12740135192875	-648.6766967773438	1034.449340820312	1405.381469726562	-723.0290527343749	1033.458740234375	1233.70556640625	-748.9904785156249	911.861328125	959.7835083007812	-723.0239257812499	1158.195922851562	967.343994140625	-710.4276123046874	1034.029052734375	1486.241333007812	-591.5250244140624	967.4899291992188	1001.969299316406	-568.5666503906249	1087.99560546875	998.4448852539062	-563.2496948242186	1115.9931640625	1321.674926757812	-539.3156127929686	1035.421264648438	1111.933349609375	-572.6016235351561	
466	4.65	1115.507202148438	1686.936767578125	-710.4391479492186	985.7841186523438	1691.989379882812	-732.4612426757811	955.7749633789062	1670.848388671875	-590.4792480468749	1091.811279296875	1676.796508789062	-577.1453857421874	914.2281494140625	1471.223388671875	-587.8892822265624	751.2129516601562	1460.147216796875	-632.4597778320311	596.5968017578125	1442.449584960938	-618.5013427734374	501.7925415039062	1472.279663085938	-637.2848510742186	372.0851745605469	1483.34033203125	-723.8110351562499	362.6839294433594	1476.335815429688	-659.0218505859374	289.7935791015625	1479.203125	-699.2636718749999	1161.335693359375	1473.867553710938	-602.5663452148436	1332.065795898438	1410.0498046875	-597.9665527343749	1459.022827148438	1422.50341796875	-615.2648925781249	1606.995361328125	1420.345703125	-634.6300659179686	1702.234985351562	1433.253540039062	-714.1190795898436	1703.001708984375	1404.39892578125	-653.3157348632811	1778.557983398438	1424.207641601562	-679.8693847656249	849.4050903320312	622.9586181640625	-646.8414306640625	861.9605102539062	473.7619934082032	-630.044677734375	840.1024780273438	261.7107849121094	-581.9630126953125	848.2382202148438	77.68057250976565	-566.745361328125	893.9197998046875	40.35698699951175	-521.3778076171875	875.1126708984375	46.49664306640629	-700.2476806640625	820.4659423828125	20.98106002807621	-668.4549560546875	1217.985961914062	616.43798828125	-649.8162841796875	1207.187622070312	476.9463195800782	-636.0974731445312	1234.77978515625	339.3859252929688	-584.862060546875	1196.200439453125	79.79813385009768	-558.4816284179688	1153.854370117188	49.00962829589847	-518.06982421875	1171.644165039062	51.42857360839848	-682.8048706054688	1240.138305664062	18.11365318298344	-648.6539916992188	1034.5458984375	1405.388061523438	-723.4286499023436	1033.517822265625	1233.52783203125	-749.1104125976561	911.9827880859375	959.9984741210938	-722.8931884765624	1158.236450195312	967.3214721679688	-710.1538085937499	1033.976928710938	1486.240234375	-591.9362182617186	967.4771118164062	1002.02685546875	-568.3926391601561	1087.905029296875	998.463623046875	-563.0232543945311	1115.931274414062	1321.85791015625	-539.5284423828124	1035.402221679688	1112.047241210938	-572.3942260742186	
467	4.66	1115.826904296875	1687.028198242188	-709.9691162109374	985.8519287109375	1692.300659179688	-731.8973388671874	955.7644653320312	1670.688842773438	-590.2017822265624	1091.768676757812	1676.342163085938	-576.6161499023436	914.2023315429688	1471.47509765625	-587.9853515624999	751.22900390625	1460.204833984375	-632.9067993164061	596.6250610351562	1442.470703125	-618.8477783203124	501.8134460449219	1472.175659179688	-637.5656738281249	371.993896484375	1483.13427734375	-723.9301757812499	362.7035827636719	1476.357299804688	-659.1823730468749	289.7088623046875	1478.919799804688	-699.3166503906249	1161.372314453125	1474.003662109375	-603.0735473632811	1332.07421875	1410.075317382812	-598.2454833984374	1458.953491210938	1422.520263671875	-615.4699707031249	1607.022338867188	1420.428466796875	-634.7639160156249	1702.261596679688	1433.226684570312	-714.2454833984374	1703.008544921875	1404.40625	-653.3897094726561	1778.633056640625	1424.18115234375	-679.9512329101561	849.3726196289062	623.1319580078125	-646.4447021484375	862.0740356445312	473.7594604492188	-629.7662353515625	840.0870361328125	261.7726440429688	-581.69580078125	848.2447509765625	77.69437408447268	-566.7115478515625	893.9190673828125	40.41495895385745	-521.3653564453125	875.3804321289062	46.89993667602543	-699.925537109375	820.6360473632812	21.32713508605961	-667.7772216796875	1218.001220703125	616.4441528320312	-649.5963134765625	1207.170532226562	476.9495239257813	-635.9666748046875	1234.703002929688	339.3863830566407	-584.72119140625	1196.2255859375	79.81838989257815	-558.4656982421875	1153.385009765625	49.12390136718753	-517.6867065429688	1171.642578125	51.44666671752934	-682.7396240234375	1240.08740234375	18.08068466186527	-648.6495971679688	1034.587158203125	1405.229614257812	-723.8441162109374	1033.549194335938	1233.421508789062	-749.1703491210936	911.515869140625	960.0073852539062	-722.2190551757811	1158.218505859375	967.3890991210938	-709.9403686523436	1033.952270507812	1486.185546875	-592.3881835937499	967.4903564453125	1002.147277832031	-568.1262207031249	1087.899658203125	998.4760131835938	-562.7930297851561	1116.212768554688	1322.11328125	-539.5311279296874	1035.365600585938	1112.188110351562	-572.2502441406249	
